<svg xmlns:svg="http://www.w3.org/2000/svg" xmlns="http://www.w3.org/2000/svg" width="991" height="991.2" version="1.1" shape-rendering="geometricPrecision">
    <g transform="translate(-4.4931964,-56.779991)"><g transform="matrix(1.1783562,0,0,1.1783562,2450.4425,-1298.9778)"><g transform="translate(-905.09668,1190.7678)"><rect width="263" height="263" x="19.4" y="454" transform="matrix(-0.1406648,0.99005728,-0.99005728,0.14066481,0,0)" style="fill:#a295ae;opacity:0.8"/><rect width="263" height="263" x="-545.4" y="-980.3" transform="matrix(0.1406648,-0.99005728,0.99005728,-0.14066481,0,0)" style="fill:#5d6f6d;opacity:0.8"/><rect width="263" height="263" x="-1091.8" y="239.4" transform="matrix(0.99005728,0.1406648,0.14066481,0.99005728,0,0)" style="fill:#8cd592;opacity:0.8"/><rect width="263" height="263" x="565.8" y="-765" transform="matrix(-0.99005728,-0.1406648,-0.14066481,-0.99005728,0,0)" style="fill:#665e74;opacity:0.8"/><rect transform="matrix(-0.60061118,-0.79954125,0.60061117,-0.79954125,0,0)" y="-1125" x="123.2" height="263" width="263" style="fill:#3c3647;opacity:0.8"/><rect transform="matrix(-0.79954125,0.60061118,-0.79954125,-0.60061117,0,0)" y="-110.1" x="522.4" height="263" width="263" style="fill:#837193;opacity:0.8"/><rect transform="matrix(0.60061118,0.79954125,-0.60061118,0.79954125,0,0)" y="599.3" x="-649.6" height="263" width="263" style="fill:#a2f4ac;opacity:0.8"/><rect transform="matrix(0.79954125,-0.60061118,0.79954125,0.60061117,0,0)" y="-415.2" x="-1048.9" height="263" width="263" style="fill:#7ea685;opacity:0.8"/></g><rect transform="matrix(0.70710678,0.70710678,-0.70710678,0.70710678,0,0)" y="2210.7" x="-130.2" height="141.4" width="141.4" fill="#3c3647"/></g></g><g transform="translate(-4.4931964,-4.4178082)"/></svg>
